<svg width="16" height="16" viewBox="0 0 16 16" fill="none" xmlns="http://www.w3.org/2000/svg">
<path d="M7.3335 8.00002C7.3335 8.17683 7.40373 8.3464 7.52876 8.47142C7.65378 8.59645 7.82335 8.66669 8.00016 8.66669C8.17697 8.66669 8.34654 8.59645 8.47157 8.47142C8.59659 8.3464 8.66683 8.17683 8.66683 8.00002C8.66683 7.82321 8.59659 7.65364 8.47157 7.52862C8.34654 7.40359 8.17697 7.33335 8.00016 7.33335C7.82335 7.33335 7.65378 7.40359 7.52876 7.52862C7.40373 7.65364 7.3335 7.82321 7.3335 8.00002Z" stroke="#212121" stroke-linecap="round" stroke-linejoin="round"/>
<path d="M7.3335 12.6667C7.3335 12.8435 7.40373 13.0131 7.52876 13.1381C7.65378 13.2631 7.82335 13.3334 8.00016 13.3334C8.17697 13.3334 8.34654 13.2631 8.47157 13.1381C8.59659 13.0131 8.66683 12.8435 8.66683 12.6667C8.66683 12.4899 8.59659 12.3203 8.47157 12.1953C8.34654 12.0703 8.17697 12 8.00016 12C7.82335 12 7.65378 12.0703 7.52876 12.1953C7.40373 12.3203 7.3335 12.4899 7.3335 12.6667Z" stroke="#212121" stroke-linecap="round" stroke-linejoin="round"/>
<path d="M7.3335 3.33335C7.3335 3.51016 7.40373 3.67973 7.52876 3.80476C7.65378 3.92978 7.82335 4.00002 8.00016 4.00002C8.17697 4.00002 8.34654 3.92978 8.47157 3.80476C8.59659 3.67973 8.66683 3.51016 8.66683 3.33335C8.66683 3.15654 8.59659 2.98697 8.47157 2.86195C8.34654 2.73693 8.17697 2.66669 8.00016 2.66669C7.82335 2.66669 7.65378 2.73693 7.52876 2.86195C7.40373 2.98697 7.3335 3.15654 7.3335 3.33335Z" stroke="#212121" stroke-linecap="round" stroke-linejoin="round"/>
</svg>
