<svg width="24" height="24" viewBox="0 0 24 24" fill="none" xmlns="http://www.w3.org/2000/svg">
<path d="M2.82281 13.3211C2.26558 12.5186 2.26558 11.4814 2.82281 10.6789C4.23146 8.65029 7.40464 5 12 5C16.5954 5 19.7685 8.65029 21.1772 10.6789C21.7344 11.4814 21.7344 12.5186 21.1772 13.3211C19.7685 15.3497 16.5954 19 12 19C7.40464 19 4.23146 15.3497 2.82281 13.3211Z" stroke="black" stroke-width="1.5" stroke-linecap="round" stroke-linejoin="round"/>
<path fill-rule="evenodd" clip-rule="evenodd" d="M12 9.75C10.7574 9.75 9.75 10.7574 9.75 12C9.75 13.2426 10.7574 14.25 12 14.25C13.2426 14.25 14.25 13.2426 14.25 12C14.25 10.7574 13.2426 9.75 12 9.75ZM8.25 12C8.25 9.92893 9.92893 8.25 12 8.25C14.0711 8.25 15.75 9.92893 15.75 12C15.75 14.0711 14.0711 15.75 12 15.75C9.92893 15.75 8.25 14.0711 8.25 12Z" fill="black"/>
<g filter="url(#filter0_d_94_8037)">
<path d="M3 3L21 21" stroke="black" stroke-width="1.5" stroke-linecap="round"/>
</g>
<defs>
<filter id="filter0_d_94_8037" x="2.25" y="2.25" width="19.5" height="21" filterUnits="userSpaceOnUse" color-interpolation-filters="sRGB">
<feFlood flood-opacity="0" result="BackgroundImageFix"/>
<feColorMatrix in="SourceAlpha" type="matrix" values="0 0 0 0 0 0 0 0 0 0 0 0 0 0 0 0 0 0 127 0" result="hardAlpha"/>
<feOffset dy="1.5"/>
<feComposite in2="hardAlpha" operator="out"/>
<feColorMatrix type="matrix" values="0 0 0 0 1 0 0 0 0 1 0 0 0 0 1 0 0 0 1 0"/>
<feBlend mode="normal" in2="BackgroundImageFix" result="effect1_dropShadow_94_8037"/>
<feBlend mode="normal" in="SourceGraphic" in2="effect1_dropShadow_94_8037" result="shape"/>
</filter>
</defs>
</svg>
