<svg width="14" height="16" viewBox="0 0 14 16" fill="none" xmlns="http://www.w3.org/2000/svg">
<path d="M12.25 4.18007C12.4791 4.31038 12.6694 4.49939 12.8012 4.72764C12.933 4.9559 13.0016 5.21516 13 5.47874V10.3347C13 10.8741 12.7047 11.3714 12.228 11.6334L7.728 14.4801C7.5049 14.6026 7.25451 14.6668 7 14.6668C6.74549 14.6668 6.4951 14.6026 6.272 14.4801L1.772 11.6334C1.53878 11.506 1.34408 11.3182 1.20827 11.0897C1.07247 10.8613 1.00053 10.6005 1 10.3347V5.47807C1 4.93874 1.29533 4.44207 1.772 4.18007L6.272 1.52674C6.50169 1.4001 6.75971 1.33368 7.022 1.33368C7.28429 1.33368 7.54231 1.4001 7.772 1.52674L12.272 4.18007H12.25Z" stroke="#212121" stroke-linecap="round" stroke-linejoin="round"/>
<path d="M5 8.00002C5 8.53045 5.21071 9.03916 5.58579 9.41423C5.96086 9.78931 6.46957 10 7 10C7.53043 10 8.03914 9.78931 8.41421 9.41423C8.78929 9.03916 9 8.53045 9 8.00002C9 7.46959 8.78929 6.96088 8.41421 6.58581C8.03914 6.21073 7.53043 6.00002 7 6.00002C6.46957 6.00002 5.96086 6.21073 5.58579 6.58581C5.21071 6.96088 5 7.46959 5 8.00002Z" stroke="#212121" stroke-linecap="round" stroke-linejoin="round"/>
</svg>
